<svg width="60" height="60" viewBox="0 0 60 60" fill="none" xmlns="http://www.w3.org/2000/svg">
<g id="apartment" clip-path="url(#clip0_769_734)">
<path id="Vector" d="M49.2462 45.3963C55.1761 45.3963 60 40.5933 60 34.6891C60 30.6942 57.7295 27.0315 54.2331 25.202C54.8744 23.8091 55.209 22.2896 55.209 20.7413C55.209 14.8375 50.3851 10.0345 44.4557 10.0345C41.8561 10.0345 39.413 10.9488 37.5 12.5696V6.97757C38.0347 6.86909 38.4375 6.39827 38.4375 5.83401V1.1668C38.4375 0.522326 37.9129 0 37.2656 0H1.17188C0.524597 0 0 0.522326 0 1.1668V5.83401C0 6.39827 0.402832 6.86909 0.9375 6.97757V58.5735C0.9375 59.2179 1.4621 59.7403 2.10938 59.7403H48.0428C48.3897 59.7403 48.7184 59.5876 48.9413 59.3228C49.6623 58.4654 50.0597 57.3775 50.0597 56.259C50.0597 53.7486 48.1023 51.6857 45.6276 51.5006V44.7728C46.783 45.183 48.0084 45.3963 49.2462 45.3963ZM44.4557 12.3681C49.0929 12.3681 52.8653 16.1242 52.8653 20.7417C52.8653 22.3 52.4323 23.821 51.6129 25.14C51.4284 25.4367 51.3867 25.8005 51.5002 26.1309C51.6133 26.4613 51.8692 26.7239 52.1979 26.8465C55.4626 28.0648 57.6562 31.217 57.6562 34.6891C57.6562 39.3062 53.8838 43.0627 49.2462 43.0627C47.9901 43.0627 46.7519 42.782 45.6276 42.2487V38.288L50.9468 32.9913C51.4046 32.5355 51.4046 31.7967 50.9468 31.3409C50.4895 30.8856 49.7475 30.8856 49.2897 31.3409L45.6276 34.9877V32.2046C45.6276 32.2042 45.6276 32.2037 45.6276 32.2033V23.842C45.6276 23.1975 45.1025 22.6752 44.4557 22.6752C43.8084 22.6752 43.2838 23.1975 43.2838 23.842V29.387L42.3143 28.4217C41.8565 27.9663 41.115 27.9663 40.6567 28.4217C40.1994 28.8774 40.1994 29.6163 40.6567 30.072L43.2838 32.6873V37.8039V37.8053V42.2487C42.1591 42.782 40.9209 43.0627 39.6648 43.0627C38.9273 43.0627 38.2022 42.9679 37.5 42.782V16.034C39.0715 13.7327 41.6473 12.3681 44.4557 12.3681ZM43.2838 50.4701C42.0941 49.157 40.3807 48.3639 38.5204 48.3639C38.1747 48.3639 37.8342 48.3922 37.5 48.4455V45.1767C38.2086 45.3211 38.9319 45.3963 39.6648 45.3963C40.903 45.3963 42.128 45.183 43.2838 44.7728V50.4701ZM3.28125 7.00081H13.9064C14.5532 7.00081 15.0783 6.47849 15.0783 5.83401C15.0783 5.18953 14.5532 4.66721 13.9064 4.66721H2.34375V2.3336H36.0938V4.66721H24.4528C23.806 4.66721 23.2809 5.18953 23.2809 5.83401C23.2809 6.47849 23.806 7.00081 24.4528 7.00081H35.1562V49.3133C34.2764 49.853 33.528 50.6032 32.9906 51.5125C32.9311 51.5189 32.8716 51.5271 32.8125 51.5357V45.7386C32.8125 45.0942 32.2879 44.5718 31.6406 44.5718H26.4844C25.8371 44.5718 25.3125 45.0942 25.3125 45.7386V52.2727C25.3125 52.9172 25.8371 53.4395 26.4844 53.4395H29.637C29.0538 54.2303 28.7082 55.2048 28.7082 56.259C28.7082 56.6482 28.7572 57.0334 28.8501 57.4067H3.28125V7.00081ZM30.4688 51.1059H27.6562V46.9054H30.4688V51.1059ZM47.7159 56.259C47.7159 56.661 47.6157 57.0557 47.4275 57.4067H31.3403C31.1526 57.0557 31.0519 56.661 31.0519 56.259C31.0519 54.914 32.151 53.8197 33.5019 53.8197C33.5509 53.8197 33.5999 53.8215 33.6479 53.8242C34.1386 53.852 34.5927 53.5749 34.7896 53.1273C35.4387 51.6515 36.9031 50.6975 38.5204 50.6975C40.28 50.6975 41.8332 51.8147 42.3857 53.4778C42.496 53.8083 42.7483 54.0731 43.0742 54.1989C43.4001 54.3251 43.7659 54.2996 44.0712 54.1291C44.4347 53.9268 44.8476 53.8197 45.266 53.8197C46.6168 53.8197 47.7159 54.914 47.7159 56.259Z" fill="white"/>
<path id="Vector_2" d="M11.9531 44.5723H6.79688C6.1496 44.5723 5.625 45.0946 5.625 45.7391V52.2732C5.625 52.9176 6.1496 53.44 6.79688 53.44H11.9531C12.6004 53.44 13.125 52.9176 13.125 52.2732V45.7391C13.125 45.0946 12.6004 44.5723 11.9531 44.5723ZM10.7812 51.1064H7.96875V46.9059H10.7812V51.1064Z" fill="white"/>
<path id="Vector_3" d="M21.7969 44.5723H16.6406C15.9933 44.5723 15.4688 45.0946 15.4688 45.7391V52.2732C15.4688 52.9176 15.9933 53.44 16.6406 53.44H21.7969C22.4442 53.44 22.9688 52.9176 22.9688 52.2732V45.7391C22.9688 45.0946 22.4442 44.5723 21.7969 44.5723ZM20.625 51.1064H17.8125V46.9059H20.625V51.1064Z" fill="white"/>
<path id="Vector_4" d="M11.9531 33.3701H6.79688C6.1496 33.3701 5.625 33.8924 5.625 34.5369V41.071C5.625 41.7155 6.1496 42.2378 6.79688 42.2378H11.9531C12.6004 42.2378 13.125 41.7155 13.125 41.071V34.5369C13.125 33.8924 12.6004 33.3701 11.9531 33.3701ZM10.7812 39.9042H7.96875V35.7037H10.7812V39.9042Z" fill="white"/>
<path id="Vector_5" d="M21.7969 33.3701H16.6406C15.9933 33.3701 15.4688 33.8924 15.4688 34.5369V41.071C15.4688 41.7155 15.9933 42.2378 16.6406 42.2378H21.7969C22.4442 42.2378 22.9688 41.7155 22.9688 41.071V34.5369C22.9688 33.8924 22.4442 33.3701 21.7969 33.3701ZM20.625 39.9042H17.8125V35.7037H20.625V39.9042Z" fill="white"/>
<path id="Vector_6" d="M26.4844 42.2378H31.6406C32.2879 42.2378 32.8125 41.7155 32.8125 41.071V34.5369C32.8125 33.8924 32.2879 33.3701 31.6406 33.3701H26.4844C25.8371 33.3701 25.3125 33.8924 25.3125 34.5369V41.071C25.3125 41.7155 25.8371 42.2378 26.4844 42.2378ZM27.6562 35.7037H30.4688V39.9042H27.6562V35.7037Z" fill="white"/>
<path id="Vector_7" d="M11.9531 22.1689H6.79688C6.1496 22.1689 5.625 22.6913 5.625 23.3357V29.8698C5.625 30.5143 6.1496 31.0366 6.79688 31.0366H11.9531C12.6004 31.0366 13.125 30.5143 13.125 29.8698V23.3357C13.125 22.6913 12.6004 22.1689 11.9531 22.1689ZM10.7812 28.703H7.96875V24.5025H10.7812V28.703Z" fill="white"/>
<path id="Vector_8" d="M21.7969 22.1689H16.6406C15.9933 22.1689 15.4688 22.6913 15.4688 23.3357V29.8698C15.4688 30.5143 15.9933 31.0366 16.6406 31.0366H21.7969C22.4442 31.0366 22.9688 30.5143 22.9688 29.8698V23.3357C22.9688 22.6913 22.4442 22.1689 21.7969 22.1689ZM20.625 28.703H17.8125V24.5025H20.625V28.703Z" fill="white"/>
<path id="Vector_9" d="M26.4844 31.0366H31.6406C32.2879 31.0366 32.8125 30.5143 32.8125 29.8698V23.3357C32.8125 22.6913 32.2879 22.1689 31.6406 22.1689H26.4844C25.8371 22.1689 25.3125 22.6913 25.3125 23.3357V29.8698C25.3125 30.5143 25.8371 31.0366 26.4844 31.0366ZM27.6562 24.5025H30.4688V28.703H27.6562V24.5025Z" fill="white"/>
<path id="Vector_10" d="M11.9531 10.9678H6.79688C6.1496 10.9678 5.625 11.4901 5.625 12.1346V18.6687C5.625 19.3131 6.1496 19.8355 6.79688 19.8355H11.9531C12.6004 19.8355 13.125 19.3131 13.125 18.6687V12.1346C13.125 11.4901 12.6004 10.9678 11.9531 10.9678ZM10.7812 17.5019H7.96875V13.3014H10.7812V17.5019Z" fill="white"/>
<path id="Vector_11" d="M21.7969 10.9678H16.6406C15.9933 10.9678 15.4688 11.4901 15.4688 12.1346V18.6687C15.4688 19.3131 15.9933 19.8355 16.6406 19.8355H21.7969C22.4442 19.8355 22.9688 19.3131 22.9688 18.6687V12.1346C22.9688 11.4901 22.4442 10.9678 21.7969 10.9678ZM20.625 17.5019H17.8125V13.3014H20.625V17.5019Z" fill="white"/>
<path id="Vector_12" d="M26.4844 19.8355H31.6406C32.2879 19.8355 32.8125 19.3131 32.8125 18.6687V12.1346C32.8125 11.4901 32.2879 10.9678 31.6406 10.9678H26.4844C25.8371 10.9678 25.3125 11.4901 25.3125 12.1346V18.6687C25.3125 19.3131 25.8371 19.8355 26.4844 19.8355ZM27.6562 13.3014H30.4688V17.5019H27.6562V13.3014Z" fill="white"/>
<path id="Vector_13" d="M19.1807 7.0006C19.4887 7.0006 19.7909 6.87571 20.0088 6.65876C20.2267 6.44181 20.3525 6.14054 20.3525 5.83379C20.3525 5.52705 20.2271 5.22578 20.0088 5.00883C19.7909 4.79188 19.4887 4.66699 19.1807 4.66699C18.8708 4.66699 18.57 4.79188 18.3521 5.00883C18.1328 5.22578 18.0088 5.52705 18.0088 5.83379C18.0088 6.14054 18.1328 6.44181 18.3521 6.65876C18.57 6.87571 18.8708 7.0006 19.1807 7.0006Z" fill="white"/>
</g>
<defs>
<clipPath id="clip0_769_734">
<rect width="60" height="59.7403" fill="white"/>
</clipPath>
</defs>
</svg>
