<svg width="60" height="60" viewBox="0 0 60 60" fill="none" xmlns="http://www.w3.org/2000/svg">
<g id="home 1" clip-path="url(#clip0_769_729)">
<g id="Group">
<path id="Vector" d="M25.3124 24.1406C21.9072 24.1406 19.4531 26.9901 19.4531 30.4499C19.4531 34.2526 22.3798 36.7462 26.8101 40.5208C27.5821 41.1785 28.3805 41.8588 29.2283 42.6005C29.4492 42.7937 29.7245 42.8904 29.9999 42.8904C30.2753 42.8904 30.5505 42.7938 30.7714 42.6005C31.6193 41.8588 32.4177 41.1785 33.1897 40.5208C37.6199 36.7462 40.5466 34.2526 40.5466 30.4499C40.5466 26.9898 38.0919 24.1406 34.6873 24.1406C32.3595 24.1406 30.8831 25.4697 29.9999 26.7533C29.1168 25.4697 27.6402 24.1406 25.3124 24.1406ZM31.13 29.7241C31.1389 29.6917 32.0491 26.4843 34.6873 26.4843C36.6916 26.4843 38.2029 28.1892 38.2029 30.4499C38.2029 33.1704 35.7438 35.2657 31.6697 38.7369C31.1291 39.1975 30.5757 39.669 29.9999 40.1662C29.424 39.669 28.8707 39.1974 28.3301 38.7369C24.256 35.2657 21.7968 33.1704 21.7968 30.4499C21.7968 28.1892 23.3082 26.4843 25.3124 26.4843C27.917 26.4843 28.8293 29.5816 28.8707 29.7275C29.0114 30.2347 29.4732 30.5859 29.9999 30.5859C30.5277 30.5859 30.9903 30.233 31.13 29.7241Z" fill="white"/>
<path id="Vector_2" d="M14.7666 13.125C15.4138 13.125 15.9385 12.6003 15.9385 11.9531C15.9385 11.3059 15.4138 10.7812 14.7666 10.7812C14.1194 10.7812 13.5947 11.3059 13.5947 11.9531C13.5947 12.6003 14.1194 13.125 14.7666 13.125Z" fill="white"/>
<path id="Vector_3" d="M52.4743 27.8708C53.296 28.497 54.2774 28.8278 55.3125 28.8278C57.8972 28.8278 59.9999 26.725 59.9999 24.1403C59.9999 22.6639 59.3258 21.3041 58.1547 20.4128L52.2657 15.8869V1.17186C52.2657 0.524759 51.741 0 51.0938 0H44.0626C43.4154 0 42.8908 0.524759 42.8908 1.17186V8.6822L32.8385 0.956942C32.0168 0.330816 31.0354 0 30.0003 0C28.9652 0 27.9838 0.330816 27.1581 0.959872L18.2356 7.81702C17.7225 8.21135 17.6261 8.94716 18.0206 9.4602C18.4149 9.97324 19.1507 10.0697 19.6639 9.67524L28.5823 2.82114C28.9924 2.50884 29.4827 2.34372 30.0003 2.34372C30.5179 2.34372 31.0082 2.50884 31.4144 2.81821L56.7309 22.2744C57.319 22.7219 57.6562 23.4021 57.6562 24.1403C57.6562 25.4327 56.6048 26.4841 55.3125 26.4841C54.7949 26.4841 54.3046 26.3189 53.8988 26.0098C52.586 25.0003 31.7737 8.99321 30.7148 8.17877C30.3085 7.86624 29.7462 7.85405 29.3267 8.14877C29.2736 8.18592 6.10804 26.005 6.10558 26.007C5.63578 26.3654 5.04845 26.5302 4.44939 26.472C3.28901 26.3596 2.65949 25.8139 2.40801 24.702C2.19731 23.7705 2.52766 22.84 3.27401 22.2711L11.3047 16.0995C11.8178 15.7052 11.9141 14.9694 11.5197 14.4563C11.1252 13.9433 10.3894 13.8468 9.8764 14.2413L1.84962 20.41C0.368384 21.5392 -0.293483 23.3819 0.122176 25.2192C0.5976 27.3212 2.05422 28.5947 4.22264 28.8046C5.41149 28.9209 6.58476 28.5891 7.52693 27.8705L7.52517 27.8683C7.57498 27.8316 7.64295 27.7804 7.73505 27.7101V43.7879C5.05372 44.431 2.98023 46.6127 2.48512 49.3751C0.939198 50.4682 0.000771257 52.244 0.000771257 54.1399C0.000771257 57.3707 2.62926 59.9992 5.86008 59.9992H54.1408C57.3716 59.9992 60.0001 57.3707 60.0001 54.1399C60.0001 52.244 59.0616 50.4682 57.5157 49.3751C57.0205 46.6115 54.9456 44.4291 52.2658 43.7874V27.7104L52.4743 27.8708ZM45.2345 2.34372H49.9219V14.0858L45.2345 10.4834V2.34372ZM18.7504 57.6556H5.85996C3.92147 57.6556 2.34438 56.0785 2.34438 54.14C2.34438 52.8879 3.03519 51.7204 4.14717 51.0931C4.48103 50.9048 4.70157 50.5651 4.73802 50.1834C4.96712 47.7773 6.95917 45.937 9.37566 45.937C10.8847 45.937 12.3126 46.6802 13.195 47.9248C13.4715 48.3148 13.9573 48.4978 14.4225 48.387C14.7229 48.3155 14.9886 48.2807 15.235 48.2807C17.1274 48.2807 18.7273 49.8006 18.7503 51.7549C18.6505 52.4594 19.0271 52.9412 19.5158 53.1114C20.4228 53.4274 21.0943 54.285 21.0943 55.3117C21.0942 56.6042 20.0428 57.6556 18.7504 57.6556ZM38.9318 51.2521C38.2074 51.6619 37.6095 52.2528 37.1944 52.9682H22.8059C22.3905 52.2526 21.7928 51.6617 21.0688 51.2521C21.0492 51.041 21.018 50.8316 20.9758 50.6233H39.0249C38.9827 50.8315 38.9516 51.041 38.9318 51.2521ZM22.8088 57.6556C23.2088 56.9657 23.4379 56.165 23.4379 55.3118H36.5627C36.5627 56.165 36.7919 56.9657 37.1918 57.6556H22.8088ZM55.2627 50.1834C55.299 50.5651 55.5197 50.9047 55.8535 51.0931C56.9655 51.7204 57.6563 52.8879 57.6563 54.14C57.6563 56.0785 56.0792 57.6556 54.1408 57.6556H41.2503C39.958 57.6556 38.9066 56.6042 38.9066 55.3118C38.9066 54.2839 39.5792 53.427 40.4851 53.1116C40.9779 52.9399 41.3498 52.4554 41.2505 51.755C41.2735 49.8056 42.8689 48.2808 44.7659 48.2808C45.0122 48.2808 45.278 48.3156 45.5783 48.3871C46.0432 48.4977 46.5293 48.315 46.8058 47.9249C47.6884 46.6803 49.1162 45.9371 50.6252 45.9371C53.0407 45.937 55.0334 47.7751 55.2627 50.1834ZM49.9219 43.6301C48.1706 43.8086 46.5404 44.6466 45.3674 45.9721C45.1627 45.9487 44.963 45.937 44.7657 45.937C42.9169 45.937 41.1801 46.8205 40.0808 48.2807H19.9199C18.8211 46.8209 17.0839 45.937 15.2348 45.937C15.0375 45.937 14.8378 45.9487 14.6332 45.9721C13.4602 44.6465 11.8301 43.8086 10.0787 43.6301V25.9082C11.7797 24.5998 28.0428 12.0911 30.0002 10.586L49.9219 25.908V43.6301Z" fill="white"/>
</g>
</g>
<defs>
<clipPath id="clip0_769_729">
<rect width="60" height="60" fill="white"/>
</clipPath>
</defs>
</svg>
