<svg width="12" height="12" viewBox="0 0 12 12" fill="none" xmlns="http://www.w3.org/2000/svg">
<g id="right-arrow 1">
<g id="Group">
<g id="Group_2">
<path id="Vector" d="M2.66691 6.46824L8.00706 11.8083C8.13057 11.9319 8.29545 12 8.47125 12C8.64706 12 8.81193 11.9319 8.93544 11.8083L9.32871 11.4151C9.58461 11.1589 9.58461 10.7425 9.32871 10.4867L4.84445 6.00249L9.33368 1.51326C9.4572 1.38965 9.52539 1.22487 9.52539 1.04916C9.52539 0.873261 9.4572 0.708482 9.33368 0.584775L8.94042 0.191706C8.81681 0.0680971 8.65203 0 8.47623 0C8.30042 0 8.13555 0.0680971 8.01204 0.191706L2.66691 5.53664C2.54311 5.66064 2.47511 5.8262 2.4755 6.00219C2.47511 6.17888 2.54311 6.34434 2.66691 6.46824Z" fill="#0D263B"/>
</g>
</g>
</g>
</svg>
